<svg xmlns="http://www.w3.org/2000/svg" width="276.9" height="206.8" viewBox="0 0 276.9 206.8"><title>edexAsset 2pd-logo-3</title><g id="Layer_2" data-name="Layer 2"><g id="Layer_1-2" data-name="Layer 1"><path d="M79.4,43.5h1v4.8h7.1V43.4h1V54.3h-1V49.1H80.4v5.2h-1Z" fill="#fff"/><path d="M98.3,43.6h.9l4.9,10.9h-1l-1.5-3.3H95.9l-1.5,3.3h-1Zm1.8,4.1c-.5-1-.9-2-1.3-3h0c-.5.9-.9,1.9-1.4,3l-1.2,2.7h5.1Z" fill="#fff"/><path d="M109.1,43.6h1V54.5h-1Z" fill="#fff"/><path d="M116.2,43.6h3.2a6,6,0,0,1,3.2.7,2.7,2.7,0,0,1,1.4,2.3,2.9,2.9,0,0,1-1.2,2.3,4.4,4.4,0,0,1-1.9.7l3.9,4.9h-1.2l-3.9-4.8h-2.5v4.9h-1Zm3.5,5.3a4.1,4.1,0,0,0,2.6-.7,1.7,1.7,0,0,0,.7-1.5,2,2,0,0,0-.9-1.7,5.6,5.6,0,0,0-2.8-.5h-2.1v4.4Z" fill="#fff"/><path d="M137.1,43.7h3.1a7.1,7.1,0,0,1,2.9.5,2.5,2.5,0,0,1,1.1,3.3,2.4,2.4,0,0,1-1.7,1.4h0a2.9,2.9,0,0,1,2.3,3.2,3.1,3.1,0,0,1-1.1,1.8,6.5,6.5,0,0,1-3.6.7h-3Zm3.7,4.9c1.5,0,2.7-.7,2.7-2a1.8,1.8,0,0,0-1-1.6,4.2,4.2,0,0,0-2.4-.5h-2v4.1Zm-.6,5.1c1.6,0,2.4-.1,2.9-.5a2.2,2.2,0,0,0,.9-1.6c0-1.4-1.2-2.2-3.1-2.2h-2.8v4.3Z" fill="#fff"/><path d="M157.8,43.7H159l-4.6,5.9v4.9h-1V49.7l-4.5-6H150l1.9,2.5,2,2.7h0l2-2.7Z" fill="#fff"/><polyline points="211.6 48.1 228.5 20.9 5.4 20.9 35.6 69.7" fill="none" stroke="#fff" stroke-linecap="round" stroke-miterlimit="10" stroke-width="6"/><polyline points="72.8 129.9 116.9 201.1 175.2 107" fill="none" stroke="#fff" stroke-linecap="round" stroke-miterlimit="10" stroke-width="6"/><circle cx="163.7" cy="68.1" r="2.8" fill="#fff"/><circle cx="66" cy="77.9" r="3.2" fill="#fff"/><path d="M232,77.9l-2.2,2.2a8.6,8.6,0,0,0-1.3,1.4Z" fill="#fff"/><path d="M256,62.7l-5.7.8c-5.9,1-12.3,2.7-16.4,6.8l-9.5,9.4c-2.6,2.5-6.6,7-10.2,7.9-1.9.5-4,0-4.8-1.5,1.2-.9,3.2-1.9,4.3-2.9,3.4-2.9,6.6-6,7.7-10.2s-.4-4.3-3.4-4.7a8.4,8.4,0,0,0-7.9,2.9c-3.8,3.9-6.4,8.3-6.9,13.7-4.7,2.5-7.1,4.3-12.4,5.4-2.6.5-5.4,1.3-6.6-1s-.4-6.5,1.2-8.6,6.2-4.9,9.9-5.7c.9-.1,2.5.1,2.8-.7a1.7,1.7,0,0,0,.1-.7c-.1-.7.3-.9-1.8-1.6s-4.2,0-6.2.4c-4.7,1-8.4,3.9-11.9,7.1s-4.3,4.5-8.6,8.1c-1.3,1.1-6,4.7-7.4,5.3s-.7-.1-.7-.3c1.4-5.1,2.5-9.6,3.6-14.5a.6.6,0,0,0-.2-.7,5.2,5.2,0,0,0-4.6-1.5,2.9,2.9,0,0,0-1.9,1.8c-1.8,3.6-2.8,7.6-4.9,11.2a33.3,33.3,0,0,1-5.2,7.1l-1.2.9c-1.9,1.2-3.3.3-3-2,.1-.5.2-1.1.3-1.9.6-2.8,1.4-5.6,1.8-8.5a3,3,0,0,0-1.2-2.6,5.1,5.1,0,0,0-5.3-.3l-5.9,4.1a6.1,6.1,0,0,0-1.5,1.2c.2-1.3.4-2.1.6-3s-.5-2.3-2.5-2.9-2.8-.7-3.5,1-1.3,2.8-1.9,4.2c-2.2,5.2-4.6,10.5-8.6,14.9a8.3,8.3,0,0,1-3,2.6c-.6.2-1,.6-1.6.5a.8.8,0,0,1-.8-.8h0a30.3,30.3,0,0,1,2.8-11,2.7,2.7,0,0,0-.1-2c-1.8-2-5-2.5-5.9-.2-2.8,8-5.7,11.1-11.6,13.7a31.4,31.4,0,0,1-5.8,2.2c-1.8.3-2.8-.6-2.6-2.1a16.7,16.7,0,0,1,1.9-5.7c3-5,7.1-8.3,13.8-8.1h1.7c2.2.1,1.6-1.7.6-2.3l-2.4-.9a14.4,14.4,0,0,0-4.6-.4c-4,.1-7.7,1.8-11,3.8-5.9,3.5-11.7,7.1-17.8,10.5-3.1,1.7-6,3.7-9.2,5.4l-.3-.3a40.1,40.1,0,0,1,1.6-4.9c1.5-4.2,2.7-8.6,5.5-12.4a2.2,2.2,0,0,0,.2-1.8c-1-2-4.6-2.9-6.4-1.4s-2.1,2.6-4.3,3.5l-7.4,4.5c2.9.2,6.3-.6,9.2-.5-.2.6-.8,2-1.1,2.7-1.4,3.9-3,7.8-4.2,11.7-.6,2.2-1.9,3.3-4.1,4.2-8.2,3.5-16.6,6.8-24,11.6-9,5.9-13.6,13.6-11.9,23.7,1.1,6.5,8.5,11.6,16.7,10.9a18.4,18.4,0,0,0,9.7-3.9,29.2,29.2,0,0,0,10.6-14.1c2.7-8,4.9-16.1,7.1-24.2a5,5,0,0,1,2.9-3.3c4.4-2.2,8.6-4.6,12.7-7s6.5-3.9,9.9-6.1c0,0,1.1-.4,0,1-3.2,4-.6,9.3,4.2,10.1s12.2-2.1,15.8-5l2.4-1.5a6.8,6.8,0,0,0,6.6,4.3c3.1.2,5.5-1.5,7.6-3.1,3.1,2.5,5.7,2.6,7.1-.8s2.4-7.1,5.3-11.1c1.3-1.9,5.3-5.9,7.9-6.9,1-.4.8.4.8.4l-1,3a25.7,25.7,0,0,0-.8,6.2c0,3.2,2.7,5.5,6.3,5.6s7-2.1,9.5-4.7l2.1-2.5c2.8,5.5,6.5,3.7,9.8,1.9s3.6-3.1,5.5-4.6a63.8,63.8,0,0,0,5.2-5.2c1.7-1.7,1.3-.7,1.2-.1v2.6c.2,2,1.5,5.3,3.5,6a8.9,8.9,0,0,0,3.9.9c5.2.2,10.2-2.6,13.6-4s3.2-2,5.5-3c.3.9,1.2,1.4,1.7,1.8a9.7,9.7,0,0,0,2.9,1.4c5.4,1,8.5-.5,19.9-11.8C238,71.3,239.2,67.8,256,62.7ZM211.7,75.3a4.9,4.9,0,0,1,2.5-1.7h.2l.6.2c.6.5.2,2.1-1,3.5s-2.7,2-3.3,1.5-.2-2.1,1-3.5ZM49.9,122.8c-2.3,6.5-4.9,12.8-7.8,19-2.4,4.7-6.5,8.4-12.4,10.8l-1.4.5c-3.9,1-5.4.3-6.4-3-2.5-8,.4-14.7,6.4-20.4s14.9-8.9,23.3-12.5A51.8,51.8,0,0,1,49.9,122.8Z" fill="#fff"/><line x1="269.5" y1="101.9" x2="266.9" y2="104.6" fill="none"/><line x1="276.9" y1="94.5" x2="274.1" y2="97.3" fill="none"/><path d="M232.6,2.6h0L232,4.3,233.6,0A20,20,0,0,1,232.6,2.6ZM62.7,92.4l-2.5-5.6c-1.2,1.2-8.9,5.6-17.6,8-4.5,1.3-14.9,1.7-19.5,2.6l-.9.2L21,98l-1.4.5a24.1,24.1,0,0,0-9.8,7.2c-.5.7-.6,1-.3,1a41.7,41.7,0,0,1,6.7-3.3c7.8-3.7,22-3.3,27.4-4.7,7-1.9,6.2-2.2,10.8-3.9S57.8,93.1,62.7,92.4Z" fill="#fff"/></g></g></svg>