<svg id="Layer_1" data-name="Layer 1" xmlns="http://www.w3.org/2000/svg" width="5in" height="5in" viewBox="0 0 358.3 360"><title>logo-FINAL</title><path d="M138.6,125.8h1v4.8h7.1v-4.9h1v10.9h-1v-5.2h-7.1v5.2h-1Z" fill="#fff"/><path d="M157.5,125.9h.9l4.9,10.9h-1l-1.5-3.3h-5.7l-1.5,3.3h-1Zm1.8,4.1c-.5-1-.9-2-1.3-3h0c-.5.9-.9,1.9-1.4,3l-1.2,2.7h5.1Z" fill="#fff"/><path d="M168.3,125.9h1v10.9h-1Z" fill="#fff"/><path d="M175.4,125.9h3.2a5.8,5.8,0,0,1,3.2.7,2.7,2.7,0,0,1,1.4,2.3,2.8,2.8,0,0,1-1.2,2.3,4.4,4.4,0,0,1-1.9.7l3.9,4.9h-1.2l-3.9-4.8h-2.5v4.9h-1Zm3.5,5.3a3.8,3.8,0,0,0,2.6-.7,1.7,1.7,0,0,0,.7-1.5,1.9,1.9,0,0,0-.9-1.7,5.4,5.4,0,0,0-2.8-.5h-2.1v4.4Z" fill="#fff"/><path d="M196.3,126h3.1a6.9,6.9,0,0,1,2.9.5,2.5,2.5,0,0,1-.6,4.7h0a2.8,2.8,0,0,1,1.2,5,6.3,6.3,0,0,1-3.6.7h-3Zm3.7,4.9c1.5,0,2.7-.7,2.7-2a1.8,1.8,0,0,0-1-1.6,4.5,4.5,0,0,0-2.4-.5h-2v4.1Zm-.6,5.1c1.6,0,2.4-.1,2.9-.5a2,2,0,0,0,.9-1.6c0-1.4-1.2-2.2-3.1-2.2h-2.8V136Z" fill="#fff"/><path d="M217,126h1.2l-4.6,5.9v4.9h-1V132l-4.5-6h1.1l1.9,2.5,2,2.7h0l2-2.7Z" fill="#fff"/><polyline points="270.8 130.4 287.7 103.2 64.6 103.2 94.8 152" fill="none" stroke="#fff" stroke-linecap="round" stroke-miterlimit="10" stroke-width="6"/><polyline points="132 212.2 176.1 283.4 234.4 189.3" fill="none" stroke="#fff" stroke-linecap="round" stroke-miterlimit="10" stroke-width="6"/><path d="M273.5,155.9Z" fill="#fff"/><path d="M195.1,277.7h0Z" fill="#fff"/><circle cx="222.9" cy="150.4" r="2.8" fill="#fff"/><circle cx="125.2" cy="160.2" r="3.2" fill="#fff"/><path d="M291.2,160.2l-2.2,2.2a8.6,8.6,0,0,0-1.3,1.4Z" fill="#fff"/><path d="M315.2,145l-5.7.8c-5.9,1-12.3,2.7-16.4,6.8l-9.5,9.4c-2.6,2.5-6.6,7-10.2,7.9-1.9.5-4,0-4.8-1.5,1.2-.9,3.2-1.9,4.3-2.9,3.4-2.9,6.6-6,7.7-10.2s-.4-4.3-3.4-4.7a8.6,8.6,0,0,0-7.9,2.9c-3.8,3.9-6.4,8.3-6.9,13.7-4.7,2.5-7.1,4.3-12.4,5.4-2.6.5-5.4,1.3-6.6-1s-.4-6.5,1.2-8.6,6.2-4.9,9.9-5.7c.9-.1,2.5.1,2.8-.7a1.7,1.7,0,0,0,.1-.7c-.1-.7.3-.9-1.8-1.6s-4.2,0-6.2.4c-4.7,1-8.4,3.9-11.9,7.1s-4.3,4.5-8.6,8.1c-1.3,1.1-6,4.7-7.4,5.3s-.7-.1-.7-.3c1.4-5.1,2.5-9.6,3.6-14.5a.7.7,0,0,0-.2-.7,5.2,5.2,0,0,0-4.6-1.5,3.1,3.1,0,0,0-1.9,1.8c-1.8,3.6-2.8,7.6-4.9,11.2a30.7,30.7,0,0,1-5.2,7.1l-1.2.9c-1.9,1.2-3.3.3-3-2,.1-.5.2-1.1.3-1.9.6-2.8,1.4-5.6,1.8-8.5a3,3,0,0,0-1.2-2.6,4.9,4.9,0,0,0-5.3-.3l-5.9,4.1a9.5,9.5,0,0,0-1.5,1.2c.2-1.3.4-2.1.6-3s-.5-2.3-2.5-2.9-2.8-.7-3.5,1-1.3,2.8-1.9,4.2c-2.2,5.2-4.6,10.5-8.6,14.9a8.8,8.8,0,0,1-3,2.6c-.6.2-1,.6-1.6.5a.8.8,0,0,1-.8-.8,31.3,31.3,0,0,1,2.8-11,2.7,2.7,0,0,0-.1-2c-1.8-2-5-2.5-5.9-.2-2.8,8-5.7,11.1-11.6,13.7a28.9,28.9,0,0,1-5.8,2.2c-1.8.3-2.8-.6-2.6-2.1a18.2,18.2,0,0,1,1.9-5.7c3-5,7.1-8.3,13.8-8.1h1.7c2.2.1,1.6-1.7.6-2.3a9.2,9.2,0,0,0-2.4-.9,12.8,12.8,0,0,0-4.6-.4c-4,.1-7.7,1.8-11,3.8-5.9,3.5-11.7,7.1-17.8,10.5-3.1,1.7-6,3.7-9.2,5.4l-.3-.3a46.6,46.6,0,0,1,1.6-4.9c1.5-4.2,2.7-8.6,5.5-12.4a2.2,2.2,0,0,0,.2-1.8c-1-2-4.6-2.9-6.4-1.4s-2.1,2.6-4.3,3.5l-7.4,4.5c2.9.2,6.3-.6,9.2-.5-.2.6-.8,2-1.1,2.7-1.4,3.9-3,7.8-4.2,11.7-.6,2.2-1.9,3.3-4.1,4.2-8.2,3.5-16.6,6.8-24,11.6-9,5.9-13.6,13.6-11.9,23.7,1.1,6.5,8.5,11.6,16.7,10.9a18.5,18.5,0,0,0,9.7-3.9,28.3,28.3,0,0,0,10.6-14.1c2.7-8,4.9-16.1,7.1-24.2a5,5,0,0,1,2.9-3.3c4.4-2.2,8.6-4.6,12.7-7s6.5-3.9,9.9-6.1c0,0,1.1-.4,0,1-3.2,4-.6,9.3,4.2,10.1s12.2-2.1,15.8-5l2.4-1.5a6.9,6.9,0,0,0,6.6,4.3c3.1.2,5.5-1.5,7.6-3.1,3.1,2.5,5.7,2.6,7.1-.8s2.4-7.1,5.3-11.1c1.3-1.9,5.3-5.9,7.9-6.9,1-.4.8.4.8.4s-.7,2.1-1,3a26.4,26.4,0,0,0-.8,6.2c0,3.2,2.7,5.5,6.3,5.6s7-2.1,9.5-4.7l2.1-2.5c2.8,5.5,6.5,3.7,9.8,1.9s3.6-3.1,5.5-4.6,3.5-3.5,5.2-5.2,1.3-.7,1.2-.1v2.6c.2,2,1.5,5.3,3.5,6s1.8.8,3.9.9c5.2.2,10.2-2.6,13.6-4s3.2-2,5.5-3c.3.9,1.2,1.4,1.7,1.8a8.4,8.4,0,0,0,2.9,1.4c5.4,1,8.5-.5,19.9-11.8C297.2,153.6,298.4,150.1,315.2,145Zm-44.3,12.6a4.5,4.5,0,0,1,2.5-1.7h.2l.6.2c.6.5.2,2.1-1,3.5s-2.7,2-3.3,1.5S269.7,159,270.9,157.6ZM109.1,205.1a194.5,194.5,0,0,1-7.8,19c-2.4,4.7-6.5,8.4-12.4,10.8l-1.4.5c-3.9,1-5.4.3-6.4-3-2.5-8,.4-14.7,6.4-20.4s14.9-8.9,23.3-12.5A51.8,51.8,0,0,1,109.1,205.1Z" fill="#fff"/><line x1="328.7" y1="184.2" x2="326.1" y2="186.9" fill="none"/><line x1="336.1" y1="176.8" x2="333.3" y2="179.6" fill="none"/><path d="M291.8,84.9h0l-.6,1.7,1.6-4.3A18.6,18.6,0,0,1,291.8,84.9ZM121.9,174.7l-2.5-5.6c-1.2,1.2-8.9,5.6-17.6,8-4.5,1.3-14.9,1.7-19.5,2.6l-.9.2a5.6,5.6,0,0,0-1.2.4l-1.4.5A24.3,24.3,0,0,0,69,188c-.5.7-.6,1-.3,1a52.1,52.1,0,0,1,6.7-3.3c7.8-3.7,22-3.3,27.4-4.7,7-1.9,6.2-2.2,10.8-3.9S117,175.4,121.9,174.7Z" fill="#fff"/><path d="M273.5,84.8Z" fill="#fff"/><path d="M246.6,241.5Z" fill="#fff"/></svg>