<?xml version="1.0" encoding="utf-8"?>
<!-- Generator: Adobe Illustrator 22.1.0, SVG Export Plug-In . SVG Version: 6.00 Build 0)  -->
<svg version="1.1" id="Layer_1" xmlns="http://www.w3.org/2000/svg" xmlns:xlink="http://www.w3.org/1999/xlink" x="0px" y="0px"
	 viewBox="0 0 259.4 263" style="enable-background:new 0 0 259.4 263;" xml:space="preserve">
<style type="text/css">
	.st0{fill:#FFFFFF;}
	.st1{fill:none;stroke:#FFFFFF;stroke-width:6;stroke-linecap:round;stroke-miterlimit:10;}
	.st2{fill:none;}
</style>
<title>logo-FINAL</title>
<g>
	<path class="st0" d="M79.5,79.8h1v4.8h7.1v-4.9h1v10.9h-1v-5.2h-7.1v5.2h-1V79.8z"/>
	<path class="st0" d="M98.4,79.9h0.9l4.9,10.9h-1l-1.5-3.3H96l-1.5,3.3h-1L98.4,79.9z M100.2,84c-0.5-1-0.9-2-1.3-3l0,0
		c-0.5,0.9-0.9,1.9-1.4,3l-1.2,2.7h5.1L100.2,84z"/>
	<path class="st0" d="M109.2,79.9h1v10.9h-1V79.9z"/>
	<path class="st0" d="M116.3,79.9h3.2c1.1-0.1,2.2,0.2,3.2,0.7c0.8,0.5,1.4,1.3,1.4,2.3c0,0.9-0.4,1.8-1.2,2.3
		c-0.6,0.4-1.2,0.6-1.9,0.7l3.9,4.9h-1.2l-3.9-4.8h-2.5v4.9h-1V79.9z M119.8,85.2c0.9,0.1,1.8-0.2,2.6-0.7c0.5-0.3,0.7-0.9,0.7-1.5
		c0-0.7-0.3-1.3-0.9-1.7c-0.9-0.4-1.8-0.6-2.8-0.5h-2.1v4.4H119.8z"/>
	<path class="st0" d="M137.2,80h3.1c1,0,2,0.1,2.9,0.5c1.2,0.6,1.8,2.1,1.2,3.3c-0.3,0.7-1,1.2-1.8,1.4l0,0c1.5,0.3,2.5,1.7,2.3,3.2
		c-0.1,0.7-0.5,1.3-1.1,1.8c-1.1,0.6-2.4,0.8-3.6,0.7h-3L137.2,80z M140.9,84.9c1.5,0,2.7-0.7,2.7-2c0-0.7-0.4-1.3-1-1.6
		c-0.7-0.4-1.6-0.6-2.4-0.5h-2v4.1H140.9z M140.3,90c1.6,0,2.4-0.1,2.9-0.5c0.5-0.4,0.9-1,0.9-1.6c0-1.4-1.2-2.2-3.1-2.2h-2.8V90
		H140.3z"/>
	<path class="st0" d="M157.9,80h1.2l-4.6,5.9v4.9h-1V86l-4.5-6h1.1l1.9,2.5l2,2.7l0,0l2-2.7L157.9,80z"/>
	<polyline class="st1" points="211.7,84.4 228.6,57.2 5.5,57.2 35.7,106 	"/>
	<polyline class="st1" points="72.9,166.2 117,237.4 175.3,143.3 	"/>
	<path class="st0" d="M214.4,109.9"/>
	<path class="st0" d="M136,231.7L136,231.7z"/>
	<circle class="st0" cx="163.8" cy="104.4" r="2.8"/>
	<circle class="st0" cx="66.1" cy="114.2" r="3.2"/>
	<path class="st0" d="M232.1,114.2l-2.2,2.2c-0.5,0.4-0.9,0.9-1.3,1.4L232.1,114.2z"/>
	<path class="st0" d="M256.1,99l-5.7,0.8c-5.9,1-12.3,2.7-16.4,6.8l-9.5,9.4c-2.6,2.5-6.6,7-10.2,7.9c-1.9,0.5-4,0-4.8-1.5
		c1.2-0.9,3.2-1.9,4.3-2.9c3.4-2.9,6.6-6,7.7-10.2s-0.4-4.3-3.4-4.7c-3-0.5-6,0.6-7.9,2.9c-3.8,3.9-6.4,8.3-6.9,13.7
		c-4.7,2.5-7.1,4.3-12.4,5.4c-2.6,0.5-5.4,1.3-6.6-1s-0.4-6.5,1.2-8.6s6.2-4.9,9.9-5.7c0.9-0.1,2.5,0.1,2.8-0.7
		c0.1-0.2,0.1-0.5,0.1-0.7c-0.1-0.7,0.3-0.9-1.8-1.6s-4.2,0-6.2,0.4c-4.7,1-8.4,3.9-11.9,7.1s-4.3,4.5-8.6,8.1
		c-1.3,1.1-6,4.7-7.4,5.3s-0.7-0.1-0.7-0.3c1.4-5.1,2.5-9.6,3.6-14.5c0.1-0.3,0-0.5-0.2-0.7c-1.2-1.2-2.9-1.8-4.6-1.5
		c-0.9,0.3-1.6,0.9-1.9,1.8c-1.8,3.6-2.8,7.6-4.9,11.2c-1.4,2.6-3.1,5-5.2,7.1l-1.2,0.9c-1.9,1.2-3.3,0.3-3-2
		c0.1-0.5,0.2-1.1,0.3-1.9c0.6-2.8,1.4-5.6,1.8-8.5c0.1-1-0.4-2-1.2-2.6c-1.6-1.1-3.6-1.2-5.3-0.3L134,122c-0.5,0.3-1,0.8-1.5,1.2
		c0.2-1.3,0.4-2.1,0.6-3s-0.5-2.3-2.5-2.9s-2.8-0.7-3.5,1s-1.3,2.8-1.9,4.2c-2.2,5.2-4.6,10.5-8.6,14.9c-0.8,1.1-1.8,2-3,2.6
		c-0.6,0.2-1,0.6-1.6,0.5c-0.4,0-0.8-0.4-0.8-0.8l0,0c0.3-3.8,1.2-7.5,2.8-11c0.2-0.7,0.2-1.4-0.1-2c-1.8-2-5-2.5-5.9-0.2
		c-2.8,8-5.7,11.1-11.6,13.7c-1.8,0.9-3.8,1.7-5.8,2.2c-1.8,0.3-2.8-0.6-2.6-2.1c0.3-2,1-3.9,1.9-5.7c3-5,7.1-8.3,13.8-8.1h1.7
		c2.2,0.1,1.6-1.7,0.6-2.3c-0.8-0.4-1.6-0.7-2.4-0.9c-1.5-0.4-3.1-0.5-4.6-0.4c-4,0.1-7.7,1.8-11,3.8c-5.9,3.5-11.7,7.1-17.8,10.5
		c-3.1,1.7-6,3.7-9.2,5.4l-0.3-0.3c0.4-1.7,1-3.3,1.6-4.9c1.5-4.2,2.7-8.6,5.5-12.4c0.3-0.5,0.4-1.2,0.2-1.8c-1-2-4.6-2.9-6.4-1.4
		s-2.1,2.6-4.3,3.5l-7.4,4.5c2.9,0.2,6.3-0.6,9.2-0.5c-0.2,0.6-0.8,2-1.1,2.7c-1.4,3.9-3,7.8-4.2,11.7c-0.6,2.2-1.9,3.3-4.1,4.2
		c-8.2,3.5-16.6,6.8-24,11.6c-9,5.9-13.6,13.6-11.9,23.7c1.1,6.5,8.5,11.6,16.7,10.9c3.5-0.3,6.9-1.7,9.7-3.9
		c4.9-3.5,8.7-8.4,10.6-14.1c2.7-8,4.9-16.1,7.1-24.2c0.4-1.5,1.5-2.7,2.9-3.3c4.4-2.2,8.6-4.6,12.7-7s6.5-3.9,9.9-6.1
		c0,0,1.1-0.4,0,1c-3.2,4-0.6,9.3,4.2,10.1s12.2-2.1,15.8-5l2.4-1.5c1.1,2.7,3.7,4.4,6.6,4.3c3.1,0.2,5.5-1.5,7.6-3.1
		c3.1,2.5,5.7,2.6,7.1-0.8c1.4-3.4,2.4-7.1,5.3-11.1c1.3-1.9,5.3-5.9,7.9-6.9c1-0.4,0.8,0.4,0.8,0.4s-0.7,2.1-1,3
		c-0.5,2-0.8,4.1-0.8,6.2c0,3.2,2.7,5.5,6.3,5.6s7-2.1,9.5-4.7l2.1-2.5c2.8,5.5,6.5,3.7,9.8,1.9s3.6-3.1,5.5-4.6s3.5-3.5,5.2-5.2
		s1.3-0.7,1.2-0.1v2.6c0.2,2,1.5,5.3,3.5,6s1.8,0.8,3.9,0.9c5.2,0.2,10.2-2.6,13.6-4s3.2-2,5.5-3c0.3,0.9,1.2,1.4,1.7,1.8
		c0.9,0.6,1.9,1.1,2.9,1.4c5.4,1,8.5-0.5,19.9-11.8C238.1,107.6,239.3,104.1,256.1,99z M211.8,111.6c0.6-0.8,1.5-1.4,2.5-1.7h0.2
		l0.6,0.2c0.6,0.5,0.2,2.1-1,3.5s-2.7,2-3.3,1.5S210.6,113,211.8,111.6L211.8,111.6z M50,159.1c-2.3,6.5-4.9,12.8-7.8,19
		c-2.4,4.7-6.5,8.4-12.4,10.8l-1.4,0.5c-3.9,1-5.4,0.3-6.4-3c-2.5-8,0.4-14.7,6.4-20.4s14.9-8.9,23.3-12.5
		C51.2,155.4,50.6,157.3,50,159.1z"/>
	<line class="st2" x1="269.6" y1="138.2" x2="267" y2="140.9"/>
	<line class="st2" x1="277" y1="130.8" x2="274.2" y2="133.6"/>
	<path class="st0" d="M232.7,38.9L232.7,38.9l-0.6,1.7l1.6-4.3C233.4,37.2,233,38.1,232.7,38.9z M62.8,128.7l-2.5-5.6
		c-1.2,1.2-8.9,5.6-17.6,8c-4.5,1.3-14.9,1.7-19.5,2.6l-0.9,0.2c-0.4,0.1-0.8,0.2-1.2,0.4l-1.4,0.5c-3.8,1.5-7.2,4-9.8,7.2
		c-0.5,0.7-0.6,1-0.3,1c2.2-1.3,4.4-2.4,6.7-3.3c7.8-3.7,22-3.3,27.4-4.7c7-1.9,6.2-2.2,10.8-3.9S57.9,129.4,62.8,128.7z"/>
	<path class="st0" d="M214.4,38.8"/>
	<path class="st0" d="M187.5,195.5"/>
</g>
</svg>
